HIERARCHY
ROOT Hips
{
     OFFSET 16.01470 94.68430 -13.78830
     CHANNELS 6 Xposition Yposition Zposition Zrotation Xrotation Yrotation
     JOINT Spine
     {
          OFFSET 0.00000 11.89050 0.00000
          CHANNELS 3 Zrotation Xrotation Yrotation
          JOINT Spine1
          {
               OFFSET 0.00000 25.65740 0.12766
               CHANNELS 3 Zrotation Xrotation Yrotation
               JOINT HEad
               {
                    OFFSET -0.00000 8.73416 0.01134
                    CHANNELS 3 Zrotation Xrotation Yrotation
                    End Site
                    {
                         OFFSET -0.29000 12.77420 2.51395
                    }
               }
               JOINT LeftShoulder1
               {
                    OFFSET 8.99000 -0.36225 -0.22000
                    CHANNELS 3 Zrotation Xrotation Yrotation
                    JOINT LeftArm
                    {
                         OFFSET 10.28270 -0.00338 0.32212
                         CHANNELS 3 Zrotation Xrotation Yrotation
                         JOINT LeftForeArm
                         {
                              OFFSET 32.76690 0.09914 -1.42434
                              CHANNELS 3 Zrotation Xrotation Yrotation
                              JOINT LeftHand
                              {
                                   OFFSET 27.56430 0.08536 1.02216
                                   CHANNELS 3 Zrotation Xrotation Yrotation
                                   End Site
                                   {
                                        OFFSET 16.74430 -0.60000 1.50291
                                   }
                              }
                         }
                    }
               }
               JOINT RightShoulder
               {
                    OFFSET -8.99000 -0.36225 -0.22000
                    CHANNELS 3 Zrotation Xrotation Yrotation
                    JOINT RightArm
                    {
                         OFFSET -10.28270 -0.00338 0.32212
                         CHANNELS 3 Zrotation Xrotation Yrotation
                         JOINT RightForeArm
                         {
                              OFFSET -32.89710 0.09914 -1.42434
                              CHANNELS 3 Zrotation Xrotation Yrotation
                              JOINT RightHand
                              {
                                   OFFSET -27.49210 0.08536 1.02216
                                   CHANNELS 3 Zrotation Xrotation Yrotation
                                   End Site
                                   {
                                        OFFSET -16.63120 -0.60000 1.50291
                                   }
                              }
                         }
                    }
               }
          }
     }
     JOINT LeftUpLeg
     {
          OFFSET 8.94580 -8.66707 0.10165
          CHANNELS 3 Zrotation Xrotation Yrotation
          JOINT LeftLeg
          {
               OFFSET -0.00000 -44.42270 1.37270
               CHANNELS 3 Zrotation Xrotation Yrotation
               JOINT LeftFoot
               {
                    OFFSET -0.25355 -42.09240 -1.46059
                    CHANNELS 3 Zrotation Xrotation Yrotation
                    JOINT LeftToes
                    {
                         OFFSET -0.04000 -4.41509 8.49910
                         CHANNELS 3 Zrotation Xrotation Yrotation
                         End Site
                         {
                              OFFSET 0.08000 -0.04745 9.77979
                         }
                    }
               }
          }
     }
     JOINT RightUpLeg
     {
          OFFSET -8.94580 -8.66707 0.10165
          CHANNELS 3 Zrotation Xrotation Yrotation
          JOINT RightLeg
          {
               OFFSET -0.00000 -44.42270 1.37270
               CHANNELS 3 Zrotation Xrotation Yrotation
               JOINT RightFoot
               {
                    OFFSET 0.25355 -42.09240 -1.46059
                    CHANNELS 3 Zrotation Xrotation Yrotation
                    JOINT RightToes
                    {
                         OFFSET 0.04000 -4.41509 8.49910
                         CHANNELS 3 Zrotation Xrotation Yrotation
                         End Site
                         {
                              OFFSET -0.08000 -0.13745 9.77979
                         }
                    }
               }
          }
     }
}
MOTION
Frames: 7
Frame Time: 0.01667
25.63010 93.94480 13.60040 -6.55285 -1.31908 -50.27830 2.02657 5.06540 -3.25120 0.52513 10.27200 -6.23176 -16.39070 0.93058 47.22020 -0.00000 -0.00000 0.00000 -10.68620 -54.70800 -20.08600 15.45110 25.60080 -76.14530 13.53160 11.42470 18.11060 9.21663 0.52252 1.28259 65.60260 3.26178 75.65190 4.48143 29.38000 97.93580 1.35269 10.07000 5.12754 33.60690 -11.91500 3.92070 -11.20000 16.80480 28.63180 -4.49705 6.85400 0.51137 4.55461 6.09664 1.19647 -13.23800 -18.09610 0.02929 -1.67125 50.74820 -0.50142 3.57839 -8.07465 -0.16142 -0.65601 3.29421 -15.00360 
26.67160 93.65480 14.56460 -6.95193 -1.42375 -50.63580 1.81037 5.36644 -3.64748 0.18049 10.84780 -6.97270 -16.30130 0.44177 48.60340 -0.00000 -0.00000 0.00000 -3.25432 -41.97610 -23.90980 12.72250 19.20860 -51.76700 17.13550 11.61490 16.40370 9.38062 0.54594 1.43290 66.17050 3.12671 75.93150 4.67412 29.60370 98.54540 1.41458 10.07010 4.86068 33.39270 -12.78530 7.12313 -10.68750 19.98970 25.65990 -4.45720 7.32349 0.52162 -0.18650 -0.71175 1.22724 -13.30300 -20.44170 -0.90781 -0.68111 54.97090 -2.54947 2.78157 -7.71457 -0.17077 0.05852 5.04575 -13.53720 
27.67410 93.23080 15.42060 -7.36010 -1.68643 -50.63070 1.56315 5.71566 -4.01090 -0.13002 11.52420 -7.66021 -16.27820 -0.09915 49.67470 -0.00000 -0.00000 0.00000 4.11035 -32.12840 -28.78840 7.32372 13.88510 -25.12630 18.50010 11.06160 11.88340 9.42480 0.56684 1.58811 67.14500 3.04207 76.42860 4.79368 29.91300 99.03960 1.48586 10.07170 4.65058 33.19430 -14.06370 9.76391 -10.22530 23.52340 23.16220 -4.41971 7.84005 0.53338 -5.07471 -7.25872 -0.11935 -13.43100 -22.34070 -1.95110 0.54878 58.83410 -3.46649 3.28184 -7.90059 -0.16638 -0.31300 3.73530 -12.77570 
28.60790 92.74970 16.23920 -7.68708 -2.04454 -50.53970 1.30646 6.07170 -4.30524 -0.36369 12.21360 -8.23054 -16.45990 -0.72139 50.43930 -0.00000 -0.00000 0.00000 8.76816 -29.50250 -34.24840 0.18437 11.87310 -2.01146 15.39150 10.22970 6.94740 9.21947 0.58266 1.76442 68.37770 3.17734 77.01860 4.73826 30.22520 99.39620 1.59994 10.07820 4.53824 32.96360 -15.35320 11.31490 -10.07780 26.81960 21.73160 -4.40422 8.26996 0.54510 -9.76786 -12.80720 -2.39939 -13.67960 -23.72810 -2.87162 2.21036 61.81900 -3.71465 4.91758 -8.11570 -0.15501 -1.42835 0.20885 -12.55810 
29.45040 92.29730 17.09710 -7.82314 -2.35010 -50.64140 1.03782 6.34794 -4.48622 -0.48751 12.73130 -8.60510 -17.07850 -1.38393 50.89070 -0.00000 -0.00000 0.00000 8.84656 -32.09840 -39.76290 -6.70031 11.86360 7.15843 8.86218 9.92162 4.68166 8.71556 0.59531 2.00181 69.70300 3.63808 77.49130 4.35334 30.46190 99.61300 1.81160 10.09220 4.43965 32.68890 -16.43330 11.92880 -10.36610 29.57830 21.47830 -4.33037 8.60812 0.54550 -14.30890 -17.47370 -5.16247 -14.01590 -24.71000 -3.52045 4.30333 63.60710 -3.89979 7.16492 -8.06053 -0.14908 -2.70230 -3.88638 -12.35280 
30.19460 91.93600 18.05130 -7.71012 -2.47161 -51.11520 0.78901 6.45988 -4.49975 -0.52017 12.90860 -8.67090 -18.22590 -1.93812 50.94690 -0.00000 -0.00000 0.00000 4.76035 -35.85130 -44.51760 -9.23584 11.78780 8.15215 4.71921 9.95622 6.07595 8.02533 0.60891 2.32408 70.93150 4.37377 77.62980 3.54717 30.56140 99.74550 2.14990 10.11180 4.20242 32.41040 -17.26520 12.11280 -11.01210 31.80000 22.17550 -4.10921 8.81904 0.52042 -18.65080 -21.37400 -8.07928 -14.37080 -25.43500 -3.85578 6.57597 64.16900 -4.48021 9.43980 -7.77856 -0.16264 -3.47074 -6.56046 -11.94230 
30.84010 91.70560 19.10090 -7.37902 -2.43101 -51.99980 0.59766 6.40129 -4.28403 -0.55077 12.75170 -8.28339 -19.56130 -2.15598 50.42740 -0.00000 -0.00000 0.00000 -1.05261 -38.22160 -46.92930 -6.76646 7.56899 7.25961 5.19468 9.98455 6.62530 7.38835 0.62361 2.67325 71.88450 5.15421 77.33190 2.40475 30.50060 99.90980 2.55499 10.12980 3.78659 32.11840 -17.80790 12.21230 -11.89010 33.52330 23.53090 -3.73275 8.85860 0.46747 -22.50370 -24.47160 -10.75310 -14.72960 -25.93000 -3.91027 8.71792 63.69440 -5.78272 11.21060 -7.44628 -0.19145 -3.51752 -6.97110 -11.50580 
